<mxfile host="app.diagrams.net" modified="2024-05-30T13:54:38.388Z" agent="Mozilla/5.0 (Windows NT 10.0; Win64; x64) AppleWebKit/537.36 (KHTML, like Gecko) Chrome/125.0.0.0 Safari/537.36" etag="0HiKF1CQPChMbjOeBpTQ" version="24.4.10" type="device">
  <diagram name="Страница — 1" id="RxkQFPi6fSgSoW909VDy">
    <mxGraphModel dx="1195" dy="622" grid="1" gridSize="10" guides="1" tooltips="1" connect="1" arrows="1" fold="1" page="1" pageScale="1" pageWidth="827" pageHeight="1169" math="0" shadow="0">
      <root>
        <mxCell id="0" />
        <mxCell id="1" parent="0" />
        <mxCell id="MYW-IUsW-p-ELHDGoc3k-1" value="Пользователь" style="swimlane;whiteSpace=wrap;html=1;" vertex="1" parent="1">
          <mxGeometry x="210" y="250" width="160" height="210" as="geometry" />
        </mxCell>
        <mxCell id="MYW-IUsW-p-ELHDGoc3k-2" value="id" style="rounded=0;whiteSpace=wrap;html=1;" vertex="1" parent="MYW-IUsW-p-ELHDGoc3k-1">
          <mxGeometry x="10" y="30" width="140" height="20" as="geometry" />
        </mxCell>
        <mxCell id="MYW-IUsW-p-ELHDGoc3k-5" value="email" style="rounded=0;whiteSpace=wrap;html=1;" vertex="1" parent="MYW-IUsW-p-ELHDGoc3k-1">
          <mxGeometry x="10" y="60" width="140" height="20" as="geometry" />
        </mxCell>
        <mxCell id="MYW-IUsW-p-ELHDGoc3k-6" value="password" style="rounded=0;whiteSpace=wrap;html=1;" vertex="1" parent="MYW-IUsW-p-ELHDGoc3k-1">
          <mxGeometry x="10" y="90" width="140" height="20" as="geometry" />
        </mxCell>
        <mxCell id="MYW-IUsW-p-ELHDGoc3k-7" value="role" style="rounded=0;whiteSpace=wrap;html=1;" vertex="1" parent="MYW-IUsW-p-ELHDGoc3k-1">
          <mxGeometry x="10" y="120" width="140" height="20" as="geometry" />
        </mxCell>
        <mxCell id="MYW-IUsW-p-ELHDGoc3k-8" value="isActivated" style="rounded=0;whiteSpace=wrap;html=1;" vertex="1" parent="MYW-IUsW-p-ELHDGoc3k-1">
          <mxGeometry x="10" y="150" width="140" height="20" as="geometry" />
        </mxCell>
        <mxCell id="MYW-IUsW-p-ELHDGoc3k-9" value="activationLink" style="rounded=0;whiteSpace=wrap;html=1;" vertex="1" parent="MYW-IUsW-p-ELHDGoc3k-1">
          <mxGeometry x="10" y="180" width="140" height="20" as="geometry" />
        </mxCell>
        <mxCell id="MYW-IUsW-p-ELHDGoc3k-10" value="&lt;strong&gt;Сессия&lt;/strong&gt;" style="swimlane;whiteSpace=wrap;html=1;" vertex="1" parent="1">
          <mxGeometry x="20" y="300" width="160" height="150" as="geometry" />
        </mxCell>
        <mxCell id="MYW-IUsW-p-ELHDGoc3k-11" value="user_id" style="rounded=0;whiteSpace=wrap;html=1;" vertex="1" parent="MYW-IUsW-p-ELHDGoc3k-10">
          <mxGeometry x="10" y="30" width="140" height="20" as="geometry" />
        </mxCell>
        <mxCell id="MYW-IUsW-p-ELHDGoc3k-12" value="token" style="rounded=0;whiteSpace=wrap;html=1;" vertex="1" parent="MYW-IUsW-p-ELHDGoc3k-10">
          <mxGeometry x="10" y="60" width="140" height="20" as="geometry" />
        </mxCell>
        <mxCell id="MYW-IUsW-p-ELHDGoc3k-13" value="isActivated" style="rounded=0;whiteSpace=wrap;html=1;" vertex="1" parent="MYW-IUsW-p-ELHDGoc3k-10">
          <mxGeometry x="10" y="90" width="140" height="20" as="geometry" />
        </mxCell>
        <mxCell id="MYW-IUsW-p-ELHDGoc3k-14" value="authenticationLink" style="rounded=0;whiteSpace=wrap;html=1;" vertex="1" parent="MYW-IUsW-p-ELHDGoc3k-10">
          <mxGeometry x="10" y="120" width="140" height="20" as="geometry" />
        </mxCell>
        <mxCell id="MYW-IUsW-p-ELHDGoc3k-17" value="&lt;strong&gt;Категория&lt;/strong&gt;" style="swimlane;whiteSpace=wrap;html=1;" vertex="1" parent="1">
          <mxGeometry x="600" y="430" width="160" height="120" as="geometry" />
        </mxCell>
        <mxCell id="MYW-IUsW-p-ELHDGoc3k-18" value="id" style="rounded=0;whiteSpace=wrap;html=1;" vertex="1" parent="MYW-IUsW-p-ELHDGoc3k-17">
          <mxGeometry x="10" y="30" width="140" height="20" as="geometry" />
        </mxCell>
        <mxCell id="MYW-IUsW-p-ELHDGoc3k-19" value="title" style="rounded=0;whiteSpace=wrap;html=1;" vertex="1" parent="MYW-IUsW-p-ELHDGoc3k-17">
          <mxGeometry x="10" y="60" width="140" height="20" as="geometry" />
        </mxCell>
        <mxCell id="MYW-IUsW-p-ELHDGoc3k-20" value="description" style="rounded=0;whiteSpace=wrap;html=1;" vertex="1" parent="MYW-IUsW-p-ELHDGoc3k-17">
          <mxGeometry x="10" y="90" width="140" height="20" as="geometry" />
        </mxCell>
        <mxCell id="MYW-IUsW-p-ELHDGoc3k-22" value="&lt;strong&gt;Склад&lt;/strong&gt;" style="swimlane;whiteSpace=wrap;html=1;" vertex="1" parent="1">
          <mxGeometry x="400" y="200" width="160" height="120" as="geometry" />
        </mxCell>
        <mxCell id="MYW-IUsW-p-ELHDGoc3k-23" value="id" style="rounded=0;whiteSpace=wrap;html=1;" vertex="1" parent="MYW-IUsW-p-ELHDGoc3k-22">
          <mxGeometry x="10" y="30" width="140" height="20" as="geometry" />
        </mxCell>
        <mxCell id="MYW-IUsW-p-ELHDGoc3k-24" value="capacity" style="rounded=0;whiteSpace=wrap;html=1;" vertex="1" parent="MYW-IUsW-p-ELHDGoc3k-22">
          <mxGeometry x="10" y="60" width="140" height="20" as="geometry" />
        </mxCell>
        <mxCell id="MYW-IUsW-p-ELHDGoc3k-25" value="products" style="rounded=0;whiteSpace=wrap;html=1;" vertex="1" parent="MYW-IUsW-p-ELHDGoc3k-22">
          <mxGeometry x="10" y="90" width="140" height="20" as="geometry" />
        </mxCell>
        <mxCell id="MYW-IUsW-p-ELHDGoc3k-26" value="Товар" style="swimlane;whiteSpace=wrap;html=1;" vertex="1" parent="1">
          <mxGeometry x="600" y="230" width="160" height="180" as="geometry" />
        </mxCell>
        <mxCell id="MYW-IUsW-p-ELHDGoc3k-27" value="id" style="rounded=0;whiteSpace=wrap;html=1;" vertex="1" parent="MYW-IUsW-p-ELHDGoc3k-26">
          <mxGeometry x="10" y="30" width="140" height="20" as="geometry" />
        </mxCell>
        <mxCell id="MYW-IUsW-p-ELHDGoc3k-28" value="name" style="rounded=0;whiteSpace=wrap;html=1;" vertex="1" parent="MYW-IUsW-p-ELHDGoc3k-26">
          <mxGeometry x="10" y="60" width="140" height="20" as="geometry" />
        </mxCell>
        <mxCell id="MYW-IUsW-p-ELHDGoc3k-29" value="description" style="rounded=0;whiteSpace=wrap;html=1;" vertex="1" parent="MYW-IUsW-p-ELHDGoc3k-26">
          <mxGeometry x="10" y="90" width="140" height="20" as="geometry" />
        </mxCell>
        <mxCell id="MYW-IUsW-p-ELHDGoc3k-30" value="price" style="rounded=0;whiteSpace=wrap;html=1;" vertex="1" parent="MYW-IUsW-p-ELHDGoc3k-26">
          <mxGeometry x="10" y="120" width="140" height="20" as="geometry" />
        </mxCell>
        <mxCell id="MYW-IUsW-p-ELHDGoc3k-31" value="category_id&amp;nbsp;" style="rounded=0;whiteSpace=wrap;html=1;" vertex="1" parent="MYW-IUsW-p-ELHDGoc3k-26">
          <mxGeometry x="10" y="150" width="140" height="20" as="geometry" />
        </mxCell>
        <mxCell id="MYW-IUsW-p-ELHDGoc3k-33" value="Система закупок" style="swimlane;whiteSpace=wrap;html=1;" vertex="1" parent="1">
          <mxGeometry x="400" y="340" width="160" height="150" as="geometry" />
        </mxCell>
        <mxCell id="MYW-IUsW-p-ELHDGoc3k-34" value="id" style="rounded=0;whiteSpace=wrap;html=1;" vertex="1" parent="MYW-IUsW-p-ELHDGoc3k-33">
          <mxGeometry x="10" y="30" width="140" height="20" as="geometry" />
        </mxCell>
        <mxCell id="MYW-IUsW-p-ELHDGoc3k-36" value="supplier" style="rounded=0;whiteSpace=wrap;html=1;" vertex="1" parent="MYW-IUsW-p-ELHDGoc3k-33">
          <mxGeometry x="10" y="60" width="140" height="20" as="geometry" />
        </mxCell>
        <mxCell id="MYW-IUsW-p-ELHDGoc3k-38" value="total_cost" style="rounded=0;whiteSpace=wrap;html=1;" vertex="1" parent="MYW-IUsW-p-ELHDGoc3k-33">
          <mxGeometry x="10" y="90" width="140" height="20" as="geometry" />
        </mxCell>
        <mxCell id="MYW-IUsW-p-ELHDGoc3k-39" value="products" style="rounded=0;whiteSpace=wrap;html=1;" vertex="1" parent="MYW-IUsW-p-ELHDGoc3k-33">
          <mxGeometry x="10" y="120" width="140" height="20" as="geometry" />
        </mxCell>
        <mxCell id="MYW-IUsW-p-ELHDGoc3k-47" value="" style="endArrow=ERoneToMany;html=1;rounded=0;exitX=0;exitY=0.5;exitDx=0;exitDy=0;entryX=1;entryY=0.5;entryDx=0;entryDy=0;endFill=0;" edge="1" parent="1" source="MYW-IUsW-p-ELHDGoc3k-2" target="MYW-IUsW-p-ELHDGoc3k-11">
          <mxGeometry width="50" height="50" relative="1" as="geometry">
            <mxPoint x="246" y="360" as="sourcePoint" />
            <mxPoint x="206" y="290" as="targetPoint" />
            <Array as="points">
              <mxPoint x="196" y="290" />
              <mxPoint x="196" y="340" />
            </Array>
          </mxGeometry>
        </mxCell>
        <mxCell id="MYW-IUsW-p-ELHDGoc3k-50" value="" style="endArrow=ERmandOne;html=1;rounded=0;exitX=1;exitY=0.5;exitDx=0;exitDy=0;entryX=0;entryY=0.5;entryDx=0;entryDy=0;startArrow=ERmandOne;startFill=0;endFill=0;" edge="1" parent="1" source="MYW-IUsW-p-ELHDGoc3k-2" target="MYW-IUsW-p-ELHDGoc3k-23">
          <mxGeometry width="50" height="50" relative="1" as="geometry">
            <mxPoint x="380" y="370" as="sourcePoint" />
            <mxPoint x="430" y="320" as="targetPoint" />
            <Array as="points">
              <mxPoint x="390" y="290" />
              <mxPoint x="390" y="240" />
            </Array>
          </mxGeometry>
        </mxCell>
        <mxCell id="MYW-IUsW-p-ELHDGoc3k-51" value="" style="endArrow=ERmandOne;html=1;rounded=0;entryX=0;entryY=0.5;entryDx=0;entryDy=0;startArrow=ERmandOne;startFill=0;endFill=0;" edge="1" parent="1" target="MYW-IUsW-p-ELHDGoc3k-34">
          <mxGeometry width="50" height="50" relative="1" as="geometry">
            <mxPoint x="360" y="290" as="sourcePoint" />
            <mxPoint x="420" y="250" as="targetPoint" />
            <Array as="points">
              <mxPoint x="390" y="290" />
              <mxPoint x="390" y="380" />
            </Array>
          </mxGeometry>
        </mxCell>
        <mxCell id="MYW-IUsW-p-ELHDGoc3k-52" value="" style="endArrow=none;html=1;rounded=0;exitX=1;exitY=0.5;exitDx=0;exitDy=0;entryX=1;entryY=0.5;entryDx=0;entryDy=0;startArrow=ERoneToMany;startFill=0;" edge="1" parent="1" source="MYW-IUsW-p-ELHDGoc3k-31" target="MYW-IUsW-p-ELHDGoc3k-18">
          <mxGeometry width="50" height="50" relative="1" as="geometry">
            <mxPoint x="380" y="370" as="sourcePoint" />
            <mxPoint x="430" y="320" as="targetPoint" />
            <Array as="points">
              <mxPoint x="780" y="390" />
              <mxPoint x="780" y="470" />
            </Array>
          </mxGeometry>
        </mxCell>
        <mxCell id="MYW-IUsW-p-ELHDGoc3k-53" value="" style="endArrow=ERmany;html=1;rounded=0;exitX=1;exitY=0.5;exitDx=0;exitDy=0;entryX=0;entryY=0.5;entryDx=0;entryDy=0;endFill=0;" edge="1" parent="1" source="MYW-IUsW-p-ELHDGoc3k-25" target="MYW-IUsW-p-ELHDGoc3k-27">
          <mxGeometry width="50" height="50" relative="1" as="geometry">
            <mxPoint x="410" y="550" as="sourcePoint" />
            <mxPoint x="460" y="500" as="targetPoint" />
            <Array as="points">
              <mxPoint x="580" y="300" />
              <mxPoint x="580" y="270" />
            </Array>
          </mxGeometry>
        </mxCell>
        <mxCell id="MYW-IUsW-p-ELHDGoc3k-54" value="" style="endArrow=ERmany;html=1;rounded=0;exitX=1;exitY=0.5;exitDx=0;exitDy=0;entryX=0;entryY=0.5;entryDx=0;entryDy=0;endFill=0;" edge="1" parent="1" source="MYW-IUsW-p-ELHDGoc3k-39" target="MYW-IUsW-p-ELHDGoc3k-27">
          <mxGeometry width="50" height="50" relative="1" as="geometry">
            <mxPoint x="550" y="380" as="sourcePoint" />
            <mxPoint x="610" y="460" as="targetPoint" />
            <Array as="points">
              <mxPoint x="570" y="470" />
              <mxPoint x="580" y="460" />
              <mxPoint x="580" y="270" />
            </Array>
          </mxGeometry>
        </mxCell>
        <mxCell id="MYW-IUsW-p-ELHDGoc3k-55" value="" style="endArrow=none;html=1;rounded=0;exitX=1;exitY=0.5;exitDx=0;exitDy=0;entryX=0;entryY=0.5;entryDx=0;entryDy=0;" edge="1" parent="1" source="MYW-IUsW-p-ELHDGoc3k-2" target="MYW-IUsW-p-ELHDGoc3k-27">
          <mxGeometry width="50" height="50" relative="1" as="geometry">
            <mxPoint x="420" y="580" as="sourcePoint" />
            <mxPoint x="480" y="170" as="targetPoint" />
            <Array as="points">
              <mxPoint x="380" y="290" />
              <mxPoint x="380" y="170" />
              <mxPoint x="480" y="170" />
              <mxPoint x="580" y="170" />
              <mxPoint x="580" y="270" />
            </Array>
          </mxGeometry>
        </mxCell>
        <mxCell id="MYW-IUsW-p-ELHDGoc3k-57" value="" style="endArrow=ERoneToMany;html=1;rounded=0;exitX=1;exitY=0.5;exitDx=0;exitDy=0;entryX=0;entryY=0.5;entryDx=0;entryDy=0;endFill=0;" edge="1" parent="1" source="MYW-IUsW-p-ELHDGoc3k-2" target="MYW-IUsW-p-ELHDGoc3k-18">
          <mxGeometry width="50" height="50" relative="1" as="geometry">
            <mxPoint x="380" y="610" as="sourcePoint" />
            <mxPoint x="430" y="560" as="targetPoint" />
            <Array as="points">
              <mxPoint x="380" y="290" />
              <mxPoint x="380" y="540" />
              <mxPoint x="480" y="540" />
              <mxPoint x="580" y="540" />
              <mxPoint x="580" y="470" />
            </Array>
          </mxGeometry>
        </mxCell>
      </root>
    </mxGraphModel>
  </diagram>
</mxfile>
